{
  "accessors": [
    {
      "bufferView": 2,
      "componentType": 5126,
      "count": 3775,
      "max": [
        5.0077681541442871,
        9.8767452239990234,
        3.8788909912109375
      ],
      "min": [
        -5.020270824432373,
        -0.043061401695013046,
        -3.9006061553955078
      ],
      "type": "VEC3"
    },
    {
      "bufferView": 2,
      "byteOffset": 45300,
      "componentType": 5126,
      "count": 3775,
      "max": [
        0.99896544218063354,
        0.99949443340301514,
        0.99899047613143921
      ],
      "min": [
        -0.99979722499847412,
        -0.99999320507049561,
        -0.99991726875305176
      ],
      "type": "VEC3"
    },
    {
      "bufferView": 3,
      "componentType": 5126,
      "count": 3775,
      "max": [
        0.99999129772186279,
        0.99873489141464233,
        0.9976235032081604,
        1
      ],
      "min": [
        -0.99932563304901123,
        -0.99940556287765503,
        -0.99881929159164429,
        1
      ],
      "type": "VEC4"
    },
    {
      "bufferView": 1,
      "componentType": 5126,
      "count": 3775,
      "max": [
        0.99770182371139526,
        0.99950003623962402
      ],
      "min": [
        0.00050000002374872565,
        0.00050000002374872565
      ],
      "type": "VEC2"
    },
    {
      "bufferView": 0,
      "componentType": 5125,
      "count": 19770,
      "max": [
        3774
      ],
      "min": [
        0
      ],
      "type": "SCALAR"
    }
  ],
  "asset": {
    "extras": {
      "author": "yellokab (https://sketchfab.com/yellokab)",
      "license": "CC-BY-4.0 (http://creativecommons.org/licenses/by/4.0/)",
      "source": "https://sketchfab.com/models/4cc18d8e0552459b8897948b81cb20ad",
      "title": "Bunny"
    },
    "generator": "Sketchfab-3.19.4",
    "version": "2.0"
  },
  "bufferViews": [
    {
      "buffer": 0,
      "byteLength": 79080,
      "byteOffset": 0,
      "name": "floatBufferViews",
      "target": 34963
    },
    {
      "buffer": 0,
      "byteLength": 30200,
      "byteOffset": 79080,
      "byteStride": 8,
      "name": "floatBufferViews",
      "target": 34962
    },
    {
      "buffer": 0,
      "byteLength": 90600,
      "byteOffset": 109280,
      "byteStride": 12,
      "name": "floatBufferViews",
      "target": 34962
    },
    {
      "buffer": 0,
      "byteLength": 60400,
      "byteOffset": 199880,
      "byteStride": 16,
      "name": "floatBufferViews",
      "target": 34962
    }
  ],
  "buffers": [
    {
      "byteLength": 260280,
      "uri": "scene.bin"
    }
  ],
  "images": [
    {
      "uri": "textures/Default_Material1_normal.png"
    },
    {
      "uri": "textures/Default_Material1_metallicRoughness.png"
    },
    {
      "uri": "textures/Default_Material1_baseColor.png"
    }
  ],
  "materials": [
    {
      "doubleSided": true,
      "emissiveFactor": [
        0,
        0,
        0
      ],
      "name": "Default_Material1",
      "normalTexture": {
        "index": 0,
        "scale": 1,
        "texCoord": 0
      },
      "pbrMetallicRoughness": {
        "baseColorFactor": [
          1,
          1,
          1,
          1
        ],
        "baseColorTexture": {
          "index": 2,
          "texCoord": 0
        },
        "metallicFactor": 0,
        "metallicRoughnessTexture": {
          "index": 1,
          "texCoord": 0
        },
        "roughnessFactor": 1
      }
    }
  ],
  "meshes": [
    {
      "name": "default-retopo 3_Default Material1_0",
      "primitives": [
        {
          "attributes": {
            "NORMAL": 1,
            "POSITION": 0,
            "TANGENT": 2,
            "TEXCOORD_0": 3
          },
          "indices": 4,
          "material": 0,
          "mode": 4
        }
      ]
    }
  ],
  "nodes": [
    {
      "children": [
        1
      ],
      "name": "RootNode (gltf orientation matrix)",
      "rotation": [
        -0.70710678118654746,
        -0,
        -0,
        0.70710678118654757
      ]
    },
    {
      "children": [
        2
      ],
      "name": "RootNode (model correction matrix)"
    },
    {
      "children": [
        3
      ],
      "matrix": [
        1,
        0,
        0,
        0,
        0,
        0,
        1,
        0,
        0,
        -1,
        0,
        0,
        0,
        0,
        0,
        1
      ],
      "name": "c1fb4d79ca47478a9f03a6dfb7de0d99.fbx"
    },
    {
      "children": [
        4
      ],
      "name": "RootNode"
    },
    {
      "children": [
        5
      ],
      "matrix": [
        169.30511474609375,
        0,
        0,
        0,
        0,
        169.30511474609375,
        0,
        0,
        0,
        0,
        169.30511474609375,
        0,
        0,
        -38.532222747802734,
        0,
        1
      ],
      "name": "default-retopo 3"
    },
    {
      "mesh": 0,
      "name": "default-retopo 3_Default Material1_0"
    }
  ],
  "samplers": [
    {
      "magFilter": 9729,
      "minFilter": 9987,
      "wrapS": 10497,
      "wrapT": 10497
    }
  ],
  "scene": 0,
  "scenes": [
    {
      "name": "OSG_Scene",
      "nodes": [
        0
      ]
    }
  ],
  "textures": [
    {
      "sampler": 0,
      "source": 0
    },
    {
      "sampler": 0,
      "source": 1
    },
    {
      "sampler": 0,
      "source": 2
    }
  ]
}

