{
    "asset" : {
        "generator" : "Khronos glTF Blender I/O v1.0.5",
        "version" : "2.0"
    },
    "scene" : 0,
    "scenes" : [
        {
            "name" : "Scene",
            "nodes" : [
                0
            ]
        }
    ],
    "nodes" : [
        {
            "mesh" : 0,
            "name" : "HiresSphere"
        }
    ],
    "materials" : [
        {
            "alphaMode" : "BLEND",
            "name" : "HiresSphere_mat",
            "pbrMetallicRoughness" : {
                "baseColorFactor" : [
                    1,
                    1,
                    1,
                    1
                ],
                "metallicFactor" : 0.10000000149011612,
                "roughnessFactor" : 0.5
            }
        }
    ],
    "meshes" : [
        {
            "name" : "Mesh.001",
            "primitives" : [
                {
                    "attributes" : {
                        "POSITION" : 0,
                        "NORMAL" : 1,
                        "TEXCOORD_0" : 2
                    },
                    "indices" : 3,
                    "material" : 0
                }
            ]
        }
    ],
    "accessors" : [
        {
            "bufferView" : 0,
            "componentType" : 5126,
            "count" : 959,
            "max" : [
                0.02499999850988388,
                0.02499999850988388,
                0.02486305497586727
            ],
            "min" : [
                -0.025000011548399925,
                -0.02499999850988388,
                -0.024863066151738167
            ],
            "type" : "VEC3"
        },
        {
            "bufferView" : 1,
            "componentType" : 5126,
            "count" : 959,
            "type" : "VEC3"
        },
        {
            "bufferView" : 2,
            "componentType" : 5126,
            "count" : 959,
            "type" : "VEC2"
        },
        {
            "bufferView" : 3,
            "componentType" : 5123,
            "count" : 5220,
            "type" : "SCALAR"
        }
    ],
    "bufferViews" : [
        {
            "buffer" : 0,
            "byteLength" : 11508,
            "byteOffset" : 0
        },
        {
            "buffer" : 0,
            "byteLength" : 11508,
            "byteOffset" : 11508
        },
        {
            "buffer" : 0,
            "byteLength" : 7672,
            "byteOffset" : 23016
        },
        {
            "buffer" : 0,
            "byteLength" : 10440,
            "byteOffset" : 30688
        }
    ],
    "buffers" : [
        {
            "byteLength" : 41128,
            "uri" : "data:application/octet-stream;base64,"
        }
    ]
}
